<svg viewBox="0 0 640 680" xmlns="http://www.w3.org/2000/svg" style="font-family: 'Google Sans', 'Noto Sans', Helvetica, Arial, sans-serif;">

  <!-- ==================== LEFT SIDE: Main Pipeline ==================== -->

  <!-- Input text labels -->
  <text x="100" y="648" text-anchor="middle" font-size="16" font-weight="600" fill="#444">Hello</text>
  <text x="210" y="648" text-anchor="middle" font-size="16" font-weight="600" fill="#444">World</text>

  <!-- Input waveform -->
  <g transform="translate(60,580)">
    <line x1="0" y1="20" x2="4" y2="20" stroke="#888" stroke-width="1.4" stroke-linecap="round"/>
    <line x1="8" y1="14" x2="8" y2="26" stroke="#888" stroke-width="1.4" stroke-linecap="round"/>
    <line x1="12" y1="8" x2="12" y2="32" stroke="#888" stroke-width="1.4" stroke-linecap="round"/>
    <line x1="16" y1="4" x2="16" y2="36" stroke="#888" stroke-width="1.4" stroke-linecap="round"/>
    <line x1="20" y1="10" x2="20" y2="30" stroke="#888" stroke-width="1.4" stroke-linecap="round"/>
    <line x1="24" y1="6" x2="24" y2="34" stroke="#888" stroke-width="1.4" stroke-linecap="round"/>
    <line x1="28" y1="12" x2="28" y2="28" stroke="#888" stroke-width="1.4" stroke-linecap="round"/>
    <line x1="32" y1="8" x2="32" y2="32" stroke="#888" stroke-width="1.4" stroke-linecap="round"/>
    <line x1="36" y1="14" x2="36" y2="26" stroke="#888" stroke-width="1.4" stroke-linecap="round"/>
    <line x1="40" y1="16" x2="40" y2="24" stroke="#888" stroke-width="1.4" stroke-linecap="round"/>
    <line x1="44" y1="18" x2="44" y2="22" stroke="#888" stroke-width="1.4" stroke-linecap="round"/>
    <line x1="52" y1="18" x2="52" y2="22" stroke="#888" stroke-width="1.4" stroke-linecap="round"/>
    <line x1="56" y1="16" x2="56" y2="24" stroke="#888" stroke-width="1.4" stroke-linecap="round"/>
    <line x1="60" y1="12" x2="60" y2="28" stroke="#888" stroke-width="1.4" stroke-linecap="round"/>
    <line x1="64" y1="6" x2="64" y2="34" stroke="#888" stroke-width="1.4" stroke-linecap="round"/>
    <line x1="68" y1="10" x2="68" y2="30" stroke="#888" stroke-width="1.4" stroke-linecap="round"/>
    <line x1="72" y1="4" x2="72" y2="36" stroke="#888" stroke-width="1.4" stroke-linecap="round"/>
    <line x1="76" y1="8" x2="76" y2="32" stroke="#888" stroke-width="1.4" stroke-linecap="round"/>
    <line x1="80" y1="14" x2="80" y2="26" stroke="#888" stroke-width="1.4" stroke-linecap="round"/>
    <line x1="84" y1="6" x2="84" y2="34" stroke="#888" stroke-width="1.4" stroke-linecap="round"/>
    <line x1="88" y1="10" x2="88" y2="30" stroke="#888" stroke-width="1.4" stroke-linecap="round"/>
    <line x1="92" y1="14" x2="92" y2="26" stroke="#888" stroke-width="1.4" stroke-linecap="round"/>
    <line x1="96" y1="18" x2="96" y2="22" stroke="#888" stroke-width="1.4" stroke-linecap="round"/>
    <line x1="100" y1="12" x2="100" y2="28" stroke="#888" stroke-width="1.4" stroke-linecap="round"/>
    <line x1="104" y1="8" x2="104" y2="32" stroke="#888" stroke-width="1.4" stroke-linecap="round"/>
    <line x1="108" y1="3" x2="108" y2="37" stroke="#888" stroke-width="1.4" stroke-linecap="round"/>
    <line x1="112" y1="8" x2="112" y2="32" stroke="#888" stroke-width="1.4" stroke-linecap="round"/>
    <line x1="116" y1="12" x2="116" y2="28" stroke="#888" stroke-width="1.4" stroke-linecap="round"/>
    <line x1="120" y1="16" x2="120" y2="24" stroke="#888" stroke-width="1.4" stroke-linecap="round"/>
    <line x1="124" y1="14" x2="124" y2="26" stroke="#888" stroke-width="1.4" stroke-linecap="round"/>
    <line x1="128" y1="10" x2="128" y2="30" stroke="#888" stroke-width="1.4" stroke-linecap="round"/>
    <line x1="132" y1="6" x2="132" y2="34" stroke="#888" stroke-width="1.4" stroke-linecap="round"/>
    <line x1="136" y1="12" x2="136" y2="28" stroke="#888" stroke-width="1.4" stroke-linecap="round"/>
    <line x1="140" y1="16" x2="140" y2="24" stroke="#888" stroke-width="1.4" stroke-linecap="round"/>
    <line x1="144" y1="19" x2="144" y2="21" stroke="#888" stroke-width="1.4" stroke-linecap="round"/>
  </g>

  <!-- Arrow: waveform → encoder -->
  <line x1="155" y1="576" x2="155" y2="540" stroke="#444" stroke-width="1.5"/>
  <polygon points="150,542 155,532 160,542" fill="#444"/>

  <!-- Speech Encoder box -->
  <rect x="60" y="488" width="190" height="44" rx="6" fill="#fff" stroke="#333" stroke-width="1.5"/>
  <text x="155" y="516" text-anchor="middle" font-size="15" font-weight="500" fill="#333">Speech Encoder</text>

  <!-- Arrow: encoder → representations -->
  <line x1="155" y1="488" x2="155" y2="452" stroke="#444" stroke-width="1.5"/>
  <polygon points="150,454 155,444 160,454" fill="#444"/>

  <!-- Dashed container for representations -->
  <rect x="42" y="320" width="226" height="124" rx="10" fill="none" stroke="#999" stroke-width="1.5" stroke-dasharray="8 5"/>

  <!-- Time-synchronous vectors: 7 uniform gray bars -->
  <rect x="62" y="342" width="20" height="80" rx="4" fill="#d8d8d8" stroke="#bbb" stroke-width="1"/>
  <rect x="90" y="342" width="20" height="80" rx="4" fill="#d8d8d8" stroke="#bbb" stroke-width="1"/>
  <rect x="118" y="342" width="20" height="80" rx="4" fill="#d8d8d8" stroke="#bbb" stroke-width="1"/>
  <rect x="146" y="342" width="20" height="80" rx="4" fill="#d8d8d8" stroke="#bbb" stroke-width="1"/>
  <rect x="174" y="342" width="20" height="80" rx="4" fill="#d8d8d8" stroke="#bbb" stroke-width="1"/>
  <rect x="202" y="342" width="20" height="80" rx="4" fill="#d8d8d8" stroke="#bbb" stroke-width="1"/>
  <rect x="230" y="342" width="20" height="80" rx="4" fill="#d8d8d8" stroke="#bbb" stroke-width="1"/>

  <!-- Arrow: representations → decoder -->
  <line x1="155" y1="320" x2="155" y2="284" stroke="#444" stroke-width="1.5"/>
  <polygon points="150,286 155,276 160,286" fill="#444"/>

  <!-- Speech Decoder box -->
  <rect x="60" y="232" width="190" height="44" rx="6" fill="#fff" stroke="#333" stroke-width="1.5"/>
  <text x="155" y="260" text-anchor="middle" font-size="15" font-weight="500" fill="#333">Speech Decoder</text>

  <!-- Arrow: decoder → output waveform -->
  <line x1="155" y1="232" x2="155" y2="196" stroke="#444" stroke-width="1.5"/>
  <polygon points="150,198 155,188 160,198" fill="#444"/>

  <!-- Output waveform -->
  <g transform="translate(60,148)">
    <line x1="0" y1="20" x2="4" y2="20" stroke="#888" stroke-width="1.4" stroke-linecap="round"/>
    <line x1="8" y1="14" x2="8" y2="26" stroke="#888" stroke-width="1.4" stroke-linecap="round"/>
    <line x1="12" y1="8" x2="12" y2="32" stroke="#888" stroke-width="1.4" stroke-linecap="round"/>
    <line x1="16" y1="4" x2="16" y2="36" stroke="#888" stroke-width="1.4" stroke-linecap="round"/>
    <line x1="20" y1="10" x2="20" y2="30" stroke="#888" stroke-width="1.4" stroke-linecap="round"/>
    <line x1="24" y1="6" x2="24" y2="34" stroke="#888" stroke-width="1.4" stroke-linecap="round"/>
    <line x1="28" y1="12" x2="28" y2="28" stroke="#888" stroke-width="1.4" stroke-linecap="round"/>
    <line x1="32" y1="8" x2="32" y2="32" stroke="#888" stroke-width="1.4" stroke-linecap="round"/>
    <line x1="36" y1="14" x2="36" y2="26" stroke="#888" stroke-width="1.4" stroke-linecap="round"/>
    <line x1="40" y1="16" x2="40" y2="24" stroke="#888" stroke-width="1.4" stroke-linecap="round"/>
    <line x1="44" y1="18" x2="44" y2="22" stroke="#888" stroke-width="1.4" stroke-linecap="round"/>
    <line x1="52" y1="18" x2="52" y2="22" stroke="#888" stroke-width="1.4" stroke-linecap="round"/>
    <line x1="56" y1="16" x2="56" y2="24" stroke="#888" stroke-width="1.4" stroke-linecap="round"/>
    <line x1="60" y1="12" x2="60" y2="28" stroke="#888" stroke-width="1.4" stroke-linecap="round"/>
    <line x1="64" y1="6" x2="64" y2="34" stroke="#888" stroke-width="1.4" stroke-linecap="round"/>
    <line x1="68" y1="10" x2="68" y2="30" stroke="#888" stroke-width="1.4" stroke-linecap="round"/>
    <line x1="72" y1="4" x2="72" y2="36" stroke="#888" stroke-width="1.4" stroke-linecap="round"/>
    <line x1="76" y1="8" x2="76" y2="32" stroke="#888" stroke-width="1.4" stroke-linecap="round"/>
    <line x1="80" y1="14" x2="80" y2="26" stroke="#888" stroke-width="1.4" stroke-linecap="round"/>
    <line x1="84" y1="6" x2="84" y2="34" stroke="#888" stroke-width="1.4" stroke-linecap="round"/>
    <line x1="88" y1="10" x2="88" y2="30" stroke="#888" stroke-width="1.4" stroke-linecap="round"/>
    <line x1="92" y1="14" x2="92" y2="26" stroke="#888" stroke-width="1.4" stroke-linecap="round"/>
    <line x1="96" y1="18" x2="96" y2="22" stroke="#888" stroke-width="1.4" stroke-linecap="round"/>
    <line x1="100" y1="12" x2="100" y2="28" stroke="#888" stroke-width="1.4" stroke-linecap="round"/>
    <line x1="104" y1="8" x2="104" y2="32" stroke="#888" stroke-width="1.4" stroke-linecap="round"/>
    <line x1="108" y1="3" x2="108" y2="37" stroke="#888" stroke-width="1.4" stroke-linecap="round"/>
    <line x1="112" y1="8" x2="112" y2="32" stroke="#888" stroke-width="1.4" stroke-linecap="round"/>
    <line x1="116" y1="12" x2="116" y2="28" stroke="#888" stroke-width="1.4" stroke-linecap="round"/>
    <line x1="120" y1="16" x2="120" y2="24" stroke="#888" stroke-width="1.4" stroke-linecap="round"/>
    <line x1="124" y1="14" x2="124" y2="26" stroke="#888" stroke-width="1.4" stroke-linecap="round"/>
    <line x1="128" y1="10" x2="128" y2="30" stroke="#888" stroke-width="1.4" stroke-linecap="round"/>
    <line x1="132" y1="6" x2="132" y2="34" stroke="#888" stroke-width="1.4" stroke-linecap="round"/>
    <line x1="136" y1="12" x2="136" y2="28" stroke="#888" stroke-width="1.4" stroke-linecap="round"/>
    <line x1="140" y1="16" x2="140" y2="24" stroke="#888" stroke-width="1.4" stroke-linecap="round"/>
    <line x1="144" y1="19" x2="144" y2="21" stroke="#888" stroke-width="1.4" stroke-linecap="round"/>
  </g>

  <!-- Output text labels -->
  <text x="100" y="138" text-anchor="middle" font-size="16" font-weight="600" fill="#444">Hello</text>
  <text x="210" y="138" text-anchor="middle" font-size="16" font-weight="600" fill="#444">World</text>


  <!-- ==================== RIGHT SIDE: Title + Annotation ==================== -->

  <!-- Title -->
  <text x="460" y="80" text-anchor="middle" font-size="18" font-weight="700" fill="#222">Time-synchronous</text>
  <text x="460" y="104" text-anchor="middle" font-size="18" font-weight="700" fill="#222">speech representation</text>
  <text x="460" y="132" text-anchor="middle" font-size="13" fill="#888">(e.g., Mimi, Encodec, DAC, SNAC, etc)</text>

  <!-- Annotation box -->
  <rect x="300" y="310" width="320" height="188" rx="8" fill="none" stroke="#aaa" stroke-width="1.2" stroke-dasharray="7 4"/>

  <!-- "Issues" label -->
  <rect x="312" y="300" width="52" height="20" rx="3" fill="#fff"/>
  <text x="338" y="315" text-anchor="middle" font-size="13" font-weight="600" fill="#888" font-style="italic">Issues</text>

  <!-- Point 1 -->
  <text x="320" y="346" font-size="13.5" fill="#444">1) <tspan font-weight="700">time-synchronised</tspan> representation.</text>
  <text x="336" y="368" font-size="13" fill="#666">→ 1 speech vector per <tspan font-weight="600" text-decoration="underline">T milliseconds</tspan></text>
  <text x="336" y="390" font-size="13" fill="#666">→ sequence length ≠ #text tokens</text>

  <!-- Point 2 -->
  <text x="320" y="424" font-size="13.5" fill="#444">2) no direct correspondence between</text>
  <text x="336" y="446" font-size="13" fill="#666">text tokens and speech representations.</text>

  <!-- Connecting dashed line from annotation to vectors -->
  <line x1="268" y1="382" x2="300" y2="382" stroke="#aaa" stroke-width="1" stroke-dasharray="4 3"/>

</svg>
